<svg id="gloves" enable-background="new 0 0 300 300" height="512" viewBox="0 0 300 300" width="512" xmlns="http://www.w3.org/2000/svg"><g><circle cx="149.172" cy="140" fill="#eaeaea" r="92"/><path d="m250.828 101.656c-1.023 0-2.047-.391-2.828-1.172l-11.312-11.312c-1.562-1.562-1.562-4.094 0-5.656s4.094-1.562 5.656 0l11.312 11.312c1.562 1.562 1.562 4.094 0 5.656-.781.782-1.804 1.172-2.828 1.172z" fill="#4c241d"/><path d="m239.516 101.656c-1.023 0-2.047-.391-2.828-1.172-1.562-1.562-1.562-4.094 0-5.656l11.312-11.312c1.562-1.562 4.094-1.562 5.656 0s1.562 4.094 0 5.656l-11.312 11.312c-.782.782-1.805 1.172-2.828 1.172z" fill="#4c241d"/><path d="m170.828 185.656c-1.023 0-2.047-.391-2.828-1.172l-11.312-11.312c-1.562-1.562-1.562-4.094 0-5.656s4.094-1.562 5.656 0l11.312 11.312c1.562 1.562 1.562 4.094 0 5.656-.781.782-1.804 1.172-2.828 1.172z" fill="#4c241d"/><path d="m159.516 185.656c-1.023 0-2.047-.391-2.828-1.172-1.562-1.562-1.562-4.094 0-5.656l11.312-11.312c1.562-1.562 4.094-1.562 5.656 0s1.562 4.094 0 5.656l-11.312 11.312c-.782.782-1.805 1.172-2.828 1.172z" fill="#4c241d"/><circle cx="221.172" cy="168" fill="#4c241d" r="4"/><circle cx="57.172" cy="228" fill="#4c241d" r="4"/><path d="m185.172 120c-6.617 0-12-5.383-12-12s5.383-12 12-12 12 5.383 12 12-5.383 12-12 12zm0-16c-2.205 0-4 1.795-4 4s1.795 4 4 4 4-1.795 4-4-1.795-4-4-4z" fill="#4c241d"/><g><path d="m133.172 44h-40v212l40-40z" fill="#fc8c29"/><path d="m93.172 260c-.516 0-1.035-.1-1.531-.305-1.494-.619-2.469-2.078-2.469-3.695v-212c0-2.209 1.791-4 4-4h40c2.209 0 4 1.791 4 4v172c0 1.061-.422 2.078-1.172 2.828l-40 40c-.766.766-1.787 1.172-2.828 1.172zm4-212v198.344l32-32v-166.344z" fill="#4c241d"/></g><g><path d="m225.172 256v-40h-92l-40 40h40z" fill="#ffce56"/><path d="m225.172 260h-132c-1.617 0-3.076-.975-3.695-2.469-.619-1.496-.277-3.215.867-4.359l40-40c.75-.75 1.768-1.172 2.828-1.172h92c2.209 0 4 1.791 4 4v40c0 2.209-1.791 4-4 4zm-122.344-8h118.344v-32h-86.344z" fill="#4c241d"/></g><g fill="#4c241d"><path d="m145.172 232c-2.209 0-4-1.791-4-4v-12c0-2.209 1.791-4 4-4s4 1.791 4 4v12c0 2.209-1.791 4-4 4z"/><path d="m161.172 232c-2.209 0-4-1.791-4-4v-12c0-2.209 1.791-4 4-4s4 1.791 4 4v12c0 2.209-1.791 4-4 4z"/><path d="m177.172 232c-2.209 0-4-1.791-4-4v-12c0-2.209 1.791-4 4-4s4 1.791 4 4v12c0 2.209-1.791 4-4 4z"/><path d="m193.172 232c-2.209 0-4-1.791-4-4v-12c0-2.209 1.791-4 4-4s4 1.791 4 4v12c0 2.209-1.791 4-4 4z"/><path d="m209.172 232c-2.209 0-4-1.791-4-4v-12c0-2.209 1.791-4 4-4s4 1.791 4 4v12c0 2.209-1.791 4-4 4z"/><circle cx="209.172" cy="244" r="4"/><circle cx="193.172" cy="244" r="4"/><circle cx="177.172" cy="244" r="4"/><circle cx="161.172" cy="244" r="4"/><circle cx="145.172" cy="244" r="4"/><path d="m133.172 72h-12c-2.209 0-4-1.791-4-4s1.791-4 4-4h12c2.209 0 4 1.791 4 4s-1.791 4-4 4z"/><path d="m133.172 96h-12c-2.209 0-4-1.791-4-4s1.791-4 4-4h12c2.209 0 4 1.791 4 4s-1.791 4-4 4z"/><path d="m133.172 120h-12c-2.209 0-4-1.791-4-4s1.791-4 4-4h12c2.209 0 4 1.791 4 4s-1.791 4-4 4z"/><path d="m133.172 144h-12c-2.209 0-4-1.791-4-4s1.791-4 4-4h12c2.209 0 4 1.791 4 4s-1.791 4-4 4z"/><path d="m133.172 168h-12c-2.209 0-4-1.791-4-4s1.791-4 4-4h12c2.209 0 4 1.791 4 4s-1.791 4-4 4z"/><path d="m133.172 192h-12c-2.209 0-4-1.791-4-4s1.791-4 4-4h12c2.209 0 4 1.791 4 4s-1.791 4-4 4z"/><path d="m61.172 180c-2.209 0-4-1.791-4-4v-124c0-2.209 1.791-4 4-4s4 1.791 4 4v124c0 2.209-1.791 4-4 4z"/><path d="m73.172 60c-1.023 0-2.047-.391-2.828-1.172l-9.172-9.172-9.172 9.172c-1.562 1.562-4.094 1.562-5.656 0s-1.562-4.094 0-5.656l12-12c1.562-1.562 4.094-1.562 5.656 0l12 12c1.562 1.562 1.562 4.094 0 5.656-.781.781-1.805 1.172-2.828 1.172z"/><path d="m61.172 188c-1.023 0-2.047-.391-2.828-1.172l-12-12c-1.562-1.562-1.562-4.094 0-5.656s4.094-1.562 5.656 0l9.172 9.172 9.172-9.172c1.562-1.562 4.094-1.562 5.656 0s1.562 4.094 0 5.656l-12 12c-.781.781-1.805 1.172-2.828 1.172z"/></g></g></svg>